<svg width="576" height="215" viewBox="0 0 576 215" fill="none" xmlns="http://www.w3.org/2000/svg">
<path d="M137.433 109.774L134.34 125.587L111.121 145.855L107.89 162.131L88.6671 165.479L91.8986 149.203L75.3244 135.865L76.9786 127.318L70.26 121.472L97.6399 116.704L95.7669 126.093L104.33 133.298L116.337 122.51L118.21 113.122L137.433 109.774ZM147.288 115.074L139.115 156.693L198.131 146.415L207.742 97.5295L140.569 109.228L147.288 115.074ZM165.54 116.646L186.11 113.063L181.258 137.66L160.688 141.243L165.54 116.646ZM217.597 102.829L210.878 96.9834L238.258 92.2151L230.997 128.998L251.567 125.416L258.828 88.6327L278.051 85.2851L268.44 134.171L209.424 144.449L217.597 102.829ZM317.901 125.557L326.073 83.9379L319.355 78.0919L346.735 73.3237L339.474 110.107L352.1 107.908L359.36 71.1248L378.583 67.7772L371.322 104.56L384.019 102.349L391.28 65.566L410.503 62.2183L400.892 111.104L317.901 125.557ZM420.35 67.5195L413.631 61.6735L441.011 56.9052L431.4 105.791L412.177 109.139L420.35 67.5195ZM450.828 62.2116L444.11 56.3656L470.709 51.7332L487.63 70.4192L492.06 48.0149L511.283 44.6673L501.671 93.5531L483.229 96.7649L466.25 78.1622L461.878 100.483L442.656 103.831L450.828 62.2116Z" fill="#13AAD1"/>
<path d="M83.913 141.194L130.232 133.128L133.466 130.299L81.6149 139.329L83.913 141.194ZM88.8424 145.159L123.316 139.156L126.868 136.052L86.2944 143.118L88.8424 145.159ZM93.8551 149.183L116.27 145.28L120.269 141.806L91.0449 146.895L93.8551 149.183ZM92.483 163.966L111.706 160.618L112.46 156.979L93.2377 160.326L92.483 163.966ZM93.5119 158.963L112.735 155.615L113.385 152.213L94.1619 155.561L93.5119 158.963ZM94.4576 153.902L113.68 150.554L114.309 147.448L95.086 150.796L94.4576 153.902ZM137.654 126.646L138.008 124.904L113.395 129.19L110.678 131.637L137.207 127.017L137.654 126.646ZM78.9004 137.171L105.429 132.551L103.535 130.907L78.9924 135.181L78.6382 136.924L78.9004 137.171ZM117.311 125.658L138.59 121.952L138.932 120.139L119.639 123.499L119.651 123.569L117.311 125.658ZM79.5037 132.242L100.713 128.549L99.0807 127.152L99.0683 127.081L79.8456 130.429L79.5037 132.242ZM79.1726 127.403L99.743 123.821L100.005 122.387L77.803 126.253L79.1726 127.403ZM100.954 117.763L73.5737 122.532L74.5269 123.389L100.701 118.83L100.954 117.763ZM120.313 120.238L139.536 116.891L139.798 115.457L120.575 118.804L120.313 120.238ZM111.204 163.19L111.465 161.756L92.2427 165.104L91.9809 166.538L111.204 163.19ZM140.747 110.833L121.524 114.181L121.271 115.248L140.494 111.9L140.747 110.833ZM142.931 155.18L201.947 144.902L202.701 141.263L143.615 151.553L142.931 155.18ZM143.889 150.19L202.976 139.9L203.626 136.498L144.539 146.788L143.889 150.19ZM149.813 119.998L208.899 109.708L209.241 107.894L150.155 118.184L149.813 119.998ZM149.482 115.159L209.845 104.646L210.107 103.212L148.112 114.009L149.482 115.159ZM201.444 147.475L201.706 146.04L142.691 156.318L142.429 157.752L201.444 147.475ZM143.883 110.287L144.836 111.144L210.803 99.656L211.056 98.5888L143.883 110.287ZM184.628 138.198L203.921 134.838L204.55 131.733L185.256 135.093L184.628 138.198ZM144.905 145.116L164.057 141.781L164.686 138.675L145.463 142.023L144.905 145.116ZM185.657 133.196L204.879 129.848L205.474 126.967L186.18 130.327L185.657 133.196ZM145.863 140.126L165.086 136.778L165.61 133.91L146.387 137.257L145.863 140.126ZM186.602 128.134L205.896 124.774L206.398 122.202L187.104 125.562L186.602 128.134ZM146.809 135.064L166.032 131.717L166.534 129.144L147.311 132.492L146.809 135.064ZM187.631 123.132L206.854 119.784L207.322 117.437L188.099 120.785L187.631 123.132ZM147.838 130.062L167.061 126.714L167.529 124.367L148.306 127.715L147.838 130.062ZM188.648 118.058L207.87 114.71L208.317 112.659L189.024 116.019L188.648 118.058ZM148.855 124.988L168.077 121.64L168.453 119.602L149.23 122.949L148.855 124.988ZM213.24 142.936L272.256 132.658L273.01 129.018L213.924 139.309L213.24 142.936ZM214.198 137.945L273.285 127.655L273.934 124.253L214.848 134.543L214.198 137.945ZM271.753 135.23L272.015 133.796L213 144.074L212.738 145.508L271.753 135.23ZM254.937 125.954L274.23 122.594L274.859 119.488L255.565 122.848L254.937 125.954ZM215.214 132.872L234.366 129.536L234.995 126.43L215.772 129.778L215.214 132.872ZM255.965 120.951L275.188 117.604L275.783 114.723L256.489 118.083L255.965 120.951ZM216.172 127.881L235.395 124.534L235.919 121.665L216.696 125.013L216.172 127.881ZM256.911 115.89L276.205 112.53L276.707 109.958L257.413 113.318L256.911 115.89ZM217.118 122.82L236.341 119.472L236.843 116.9L217.62 120.248L217.118 122.82ZM257.94 110.887L277.163 107.54L277.631 105.192L258.408 108.54L257.94 110.887ZM218.147 117.817L237.37 114.47L237.838 112.122L218.615 115.47L218.147 117.817ZM258.957 105.814L278.179 102.466L278.626 100.415L259.332 103.775L258.957 105.814ZM219.164 112.744L238.386 109.396L238.762 107.357L219.539 110.705L219.164 112.744ZM259.915 100.823L279.208 97.4632L279.55 95.6496L260.257 99.0097L259.915 100.823ZM220.122 107.753L239.344 104.406L239.686 102.592L220.464 105.94L220.122 107.753ZM219.79 102.914L240.361 99.3319L240.623 97.8978L218.421 101.764L219.79 102.914ZM241.572 93.2744L214.192 98.0427L215.145 98.8998L241.319 94.3416L241.572 93.2744ZM260.931 95.7496L280.154 92.4019L280.416 90.9677L261.193 94.3154L260.931 95.7496ZM281.365 86.3444L262.142 89.692L261.889 90.7592L281.112 87.4115L281.365 86.3444ZM321.716 124.044L404.707 109.591L405.462 105.952L322.4 120.417L321.716 124.044ZM322.674 119.054L405.736 104.588L406.386 101.187L323.324 115.652L322.674 119.054ZM321.214 126.617L404.205 112.163L404.467 110.729L321.476 125.182L321.214 126.617ZM387.388 102.887L406.682 99.5272L407.31 96.4213L388.017 99.7813L387.388 102.887ZM355.469 108.446L374.691 105.098L375.32 101.993L356.097 105.34L355.469 108.446ZM323.691 113.98L342.843 110.645L343.471 107.539L324.249 110.887L323.691 113.98ZM388.417 97.8845L407.64 94.5368L408.235 91.6561L388.941 95.0161L388.417 97.8845ZM324.649 108.99L343.872 105.642L344.395 102.774L325.173 106.121L324.649 108.99ZM356.498 103.443L375.72 100.096L376.244 97.2273L357.021 100.575L356.498 103.443ZM389.363 92.8232L408.657 89.4632L409.159 86.8909L389.865 90.2509L389.363 92.8232ZM325.595 103.929L344.817 100.581L345.32 98.0086L326.097 101.356L325.595 103.929ZM357.443 98.3821L376.666 95.0344L377.168 92.4621L357.946 95.8098L357.443 98.3821ZM390.392 87.8205L409.615 84.4728L410.083 82.1257L390.86 85.4733L390.392 87.8205ZM326.624 98.9258L345.846 95.5782L346.315 93.231L327.092 96.5787L326.624 98.9258ZM358.472 93.3793L377.695 90.0317L378.163 87.6845L358.941 91.0322L358.472 93.3793ZM391.408 82.7468L410.631 79.3992L411.078 77.3481L391.784 80.7081L391.408 82.7468ZM327.64 93.8522L346.863 90.5045L347.239 88.4658L328.016 91.8135L327.64 93.8522ZM359.489 88.3057L378.712 84.958L379.087 82.9193L359.865 86.267L359.489 88.3057ZM392.367 77.7565L411.66 74.3964L412.002 72.5829L392.708 75.9429L392.367 77.7565ZM328.598 88.8618L347.821 85.5142L348.163 83.7006L328.94 87.0483L328.598 88.8618ZM360.447 83.3153L379.67 79.9677L380.012 78.1541L360.789 81.5018L360.447 83.3153ZM328.267 84.0229L348.838 80.4405L349.099 79.0063L326.898 82.8728L328.267 84.0229ZM350.048 74.383L322.668 79.1512L323.622 80.0084L349.796 75.4501L350.048 74.383ZM393.383 72.6828L412.606 69.3351L412.868 67.901L393.645 71.2486L393.383 72.6828ZM361.464 78.2417L380.686 74.894L380.948 73.4598L361.725 76.8075L361.464 78.2417ZM413.816 63.2776L394.594 66.6253L394.341 67.6925L413.564 64.3448L413.816 63.2776ZM381.897 68.8365L362.674 72.1841L362.422 73.2513L381.644 69.9036L381.897 68.8365ZM415.993 107.626L435.215 104.278L435.97 100.639L416.677 103.999L415.993 107.626ZM416.951 102.635L436.244 99.2754L436.894 95.8735L417.601 99.2335L416.951 102.635ZM417.967 97.5618L437.19 94.2141L437.819 91.1083L418.525 94.4683L417.967 97.5618ZM418.925 92.5714L438.148 89.2238L438.743 86.343L419.449 89.7031L418.925 92.5714ZM419.871 87.5101L439.165 84.1501L439.667 81.5778L420.373 84.9378L419.871 87.5101ZM420.9 82.5074L440.123 79.1598L440.591 76.8126L421.368 80.1603L420.9 82.5074ZM421.917 77.4338L441.139 74.0861L441.586 72.0351L422.292 75.3951L421.917 77.4338ZM422.875 72.4434L442.168 69.0834L442.51 67.2698L423.217 70.6299L422.875 72.4434ZM422.544 67.6045L443.114 64.0221L443.376 62.5879L421.174 66.4544L422.544 67.6045ZM444.325 57.9646L416.945 62.7328L417.898 63.59L444.072 59.0317L444.325 57.9646ZM434.713 106.85L434.975 105.416L415.753 108.764L415.491 110.198L434.713 106.85ZM450.35 82.2022L509.437 71.9121L509.939 69.3398L450.852 79.6299L450.35 82.2022ZM473.096 83.1376L508.42 76.9858L509.015 74.1051L470.924 80.7386L473.096 83.1376ZM476.89 87.3003L507.462 81.9761L508.09 78.8703L474.539 84.7133L476.89 87.3003ZM480.768 91.5216L506.516 87.0374L507.166 83.6355L478.155 88.6879L480.768 91.5216ZM451.379 77.1995L490.037 70.4671L488.235 68.5152L451.847 74.8523L451.379 77.1995ZM484.562 95.6843L505.487 92.0402L506.242 88.4007L481.77 92.6625L484.562 95.6843ZM446.472 102.318L465.694 98.9702L466.378 95.3431L447.155 98.6908L446.472 102.318ZM452.395 72.1258L486.159 66.2458L484.62 64.5406L452.771 70.0871L452.395 72.1258ZM447.43 97.3275L466.652 93.9798L467.302 90.5779L448.08 93.9256L447.43 97.3275ZM448.446 92.2539L467.669 88.9062L468.226 85.8127L449.004 89.1603L448.446 92.2539ZM449.404 87.2635L468.627 83.9158L469.151 81.0475L449.928 84.3951L449.404 87.2635ZM453.353 67.1355L482.365 62.0831L481.004 60.566L453.695 65.3219L453.353 67.1355ZM491.172 70.2694L510.395 66.9218L510.863 64.5746L491.64 67.9223L491.172 70.2694ZM492.188 65.1958L511.411 61.8481L511.858 59.7971L492.564 63.1571L492.188 65.1958ZM453.022 62.2965L478.558 57.8494L477.472 56.65L451.653 61.1465L453.022 62.2965ZM493.146 60.2054L512.44 56.8454L512.782 55.0319L493.488 58.3919L493.146 60.2054ZM447.423 57.4249L448.377 58.2821L474.834 53.6744L474.023 52.7925L447.423 57.4249ZM494.163 55.1318L513.386 51.7841L513.648 50.3499L494.425 53.6976L494.163 55.1318ZM465.192 101.542L465.454 100.108L446.231 103.456L445.969 104.89L465.192 101.542ZM486.543 97.8242L504.985 94.6125L505.247 93.1783L485.386 96.6371L486.543 97.8242ZM514.596 45.7266L495.374 49.0743L495.121 50.1414L514.344 46.7938L514.596 45.7266Z" fill="#37CBF2"/>
<path d="M304 161L570 112" stroke="#EBE267" stroke-width="11" stroke-linecap="round"/>
<path d="M6 107L272 58" stroke="#F54DBD" stroke-width="11" stroke-linecap="round"/>
<path d="M278 166L244.75 172.125" stroke="#F54DBD" stroke-width="11" stroke-linecap="round"/>
<path d="M361.25 41L328 47.125" stroke="#F54DBD" stroke-width="11" stroke-linecap="round"/>
<path d="M499.25 13L466 19.125" stroke="#F54DBD" stroke-width="11" stroke-linecap="round"/>
<path d="M264 196.5L397 172" stroke="#F54DBD" stroke-width="11" stroke-linecap="round"/>
<path d="M40 209.5L173 185" stroke="#EBE267" stroke-width="11" stroke-linecap="round"/>
<path d="M195 43.5L328 19" stroke="#EBE267" stroke-width="11" stroke-linecap="round"/>
<path d="M222.312 177L214 178.531" stroke="#B952EE" stroke-width="11" stroke-linecap="round"/>
<path d="M394.312 34L386 35.5312" stroke="#F54DBD" stroke-width="11" stroke-linecap="round"/>
<path d="M530.312 6L522 7.53125" stroke="#B952EE" stroke-width="11" stroke-linecap="round"/>
</svg>
