<svg width="716" height="224" viewBox="0 0 716 224" fill="none" xmlns="http://www.w3.org/2000/svg">
<path d="M177.433 124.774L174.34 140.587L151.121 160.855L147.89 177.131L128.667 180.479L131.899 164.203L115.324 150.865L116.979 142.318L110.26 136.472L137.64 131.704L135.767 141.092L144.33 148.298L156.337 137.51L158.21 128.121L177.433 124.774ZM187.288 130.074L179.115 171.693L238.131 161.415L247.742 112.529L180.569 124.228L187.288 130.074ZM205.54 131.645L226.11 128.063L221.258 152.66L200.688 156.243L205.54 131.645ZM257.597 117.829L250.878 111.983L278.258 107.215L270.997 143.998L291.567 140.416L298.828 103.633L318.051 100.285L308.44 149.171L249.424 159.449L257.597 117.829ZM386.735 88.3235L379.474 125.107L416.217 118.708L413.866 130.811L357.901 140.557L366.073 98.9378L359.355 93.0918L386.735 88.3235ZM430.841 87.6584L422.668 129.278L481.684 119L491.295 70.1141L424.122 81.8124L430.841 87.6584ZM449.093 89.2302L469.663 85.6478L464.811 110.245L444.241 113.827L449.093 89.2302ZM551.922 106.768L492.977 117.033L495.327 104.931L535.049 98.0129L536.294 91.7302L496.572 98.6479L501.15 75.414L494.431 69.568L561.533 57.882L559.124 70.068L519.402 76.9857L518.216 83.1851L557.938 76.2674L551.922 106.768ZM575.455 67.224L564.671 57.3356L628.793 46.1685L626.385 58.3545L607.516 61.6404L600.314 98.3403L581.092 101.688L588.294 64.9881L575.455 67.224Z" fill="#13AAD1"/>
<path d="M123.913 156.194L170.232 148.128L173.466 145.299L121.615 154.329L123.913 156.194ZM128.842 160.159L163.316 154.156L166.868 151.052L126.294 158.118L128.842 160.159ZM133.855 164.183L156.27 160.279L160.269 156.806L131.045 161.895L133.855 164.183ZM132.483 178.966L151.706 175.618L152.46 171.978L133.238 175.326L132.483 178.966ZM133.512 173.963L152.735 170.615L153.385 167.213L134.162 170.561L133.512 173.963ZM134.458 168.902L153.68 165.554L154.309 162.448L135.086 165.796L134.458 168.902ZM177.654 141.646L178.008 139.904L153.395 144.19L150.678 146.636L177.207 142.016L177.654 141.646ZM118.9 152.171L145.429 147.551L143.535 145.907L118.992 150.181L118.638 151.924L118.9 152.171ZM157.311 140.658L178.59 136.952L178.932 135.138L159.639 138.498L159.651 138.569L157.311 140.658ZM119.504 147.242L140.713 143.548L139.081 142.152L139.068 142.081L119.846 145.428L119.504 147.242ZM119.173 142.403L139.743 138.821L140.005 137.387L117.803 141.253L119.173 142.403ZM140.954 132.763L113.574 137.531L114.527 138.389L140.701 133.83L140.954 132.763ZM160.313 135.238L179.536 131.891L179.798 130.456L160.575 133.804L160.313 135.238ZM151.204 178.19L151.465 176.756L132.243 180.104L131.981 181.538L151.204 178.19ZM180.747 125.833L161.524 129.181L161.271 130.248L180.494 126.9L180.747 125.833ZM182.931 170.18L241.947 159.902L242.701 156.263L183.615 166.553L182.931 170.18ZM183.889 165.19L242.976 154.9L243.626 151.498L184.539 161.788L183.889 165.19ZM189.813 134.998L248.899 124.708L249.241 122.894L190.155 133.184L189.813 134.998ZM189.482 130.159L249.845 119.646L250.107 118.212L188.112 129.009L189.482 130.159ZM241.444 162.475L241.706 161.04L182.691 171.318L182.429 172.752L241.444 162.475ZM183.883 125.287L184.836 126.144L250.803 114.656L251.056 113.589L183.883 125.287ZM224.628 153.198L243.921 149.838L244.55 146.732L225.256 150.092L224.628 153.198ZM184.905 160.116L204.057 156.781L204.686 153.675L185.463 157.022L184.905 160.116ZM225.657 148.196L244.879 144.848L245.474 141.967L226.18 145.327L225.657 148.196ZM185.863 155.126L205.086 151.778L205.61 148.91L186.387 152.257L185.863 155.126ZM226.602 143.134L245.896 139.774L246.398 137.202L227.104 140.562L226.602 143.134ZM186.809 150.064L206.032 146.717L206.534 144.144L187.311 147.492L186.809 150.064ZM227.631 138.132L246.854 134.784L247.322 132.437L228.099 135.784L227.631 138.132ZM187.838 145.062L207.061 141.714L207.529 139.367L188.306 142.714L187.838 145.062ZM228.648 133.058L247.87 129.71L248.317 127.659L229.024 131.019L228.648 133.058ZM188.855 139.988L208.077 136.64L208.453 134.602L189.23 137.949L188.855 139.988ZM253.24 157.936L312.256 147.658L313.01 144.018L253.924 154.308L253.24 157.936ZM254.198 152.945L313.285 142.655L313.934 139.253L254.848 149.543L254.198 152.945ZM311.753 150.23L312.015 148.796L253 159.074L252.738 160.508L311.753 150.23ZM294.937 140.954L314.23 137.594L314.859 134.488L295.565 137.848L294.937 140.954ZM255.214 147.872L274.366 144.536L274.995 141.43L255.772 144.778L255.214 147.872ZM295.965 135.951L315.188 132.603L315.783 129.723L296.489 133.083L295.965 135.951ZM256.172 142.881L275.395 139.533L275.919 136.665L256.696 140.013L256.172 142.881ZM296.911 130.89L316.205 127.53L316.707 124.958L297.413 128.318L296.911 130.89ZM257.118 137.82L276.341 134.472L276.843 131.9L257.62 135.248L257.118 137.82ZM297.94 125.887L317.163 122.539L317.631 120.192L298.408 123.54L297.94 125.887ZM258.147 132.817L277.37 129.469L277.838 127.122L258.615 130.47L258.147 132.817ZM298.957 120.813L318.179 117.466L318.626 115.415L299.332 118.775L298.957 120.813ZM259.164 127.743L278.386 124.396L278.762 122.357L259.539 125.705L259.164 127.743ZM299.915 115.823L319.208 112.463L319.55 110.65L300.257 114.01L299.915 115.823ZM260.122 122.753L279.344 119.405L279.686 117.592L260.464 120.94L260.122 122.753ZM259.79 117.914L280.361 114.332L280.623 112.898L258.421 116.764L259.79 117.914ZM281.572 108.274L254.192 113.043L255.145 113.9L281.319 109.341L281.572 108.274ZM300.931 110.749L320.154 107.402L320.416 105.968L301.193 109.315L300.931 110.749ZM321.365 101.344L302.142 104.692L301.889 105.759L321.112 102.411L321.365 101.344ZM361.716 139.044L417.611 129.31L418.366 125.67L362.4 135.417L361.716 139.044ZM362.674 134.054L418.64 124.307L419.29 120.905L363.324 130.652L362.674 134.054ZM417.18 131.87L417.442 130.436L361.476 140.182L361.214 141.616L417.18 131.87ZM363.691 128.98L382.843 125.645L383.471 122.539L364.249 125.887L363.691 128.98ZM364.649 123.99L383.872 120.642L384.395 117.774L365.173 121.121L364.649 123.99ZM365.595 118.928L384.817 115.581L385.32 113.008L366.097 116.356L365.595 118.928ZM366.624 113.926L385.846 110.578L386.315 108.231L367.092 111.579L366.624 113.926ZM367.64 108.852L386.863 105.504L387.239 103.466L368.016 106.813L367.64 108.852ZM368.598 103.862L387.821 100.514L388.163 98.7005L368.94 102.048L368.598 103.862ZM368.267 99.0228L388.838 95.4404L389.099 94.0062L366.898 97.8727L368.267 99.0228ZM390.048 89.3829L362.668 94.1511L363.622 95.0083L389.796 90.45L390.048 89.3829ZM426.484 127.765L485.5 117.487L486.254 113.848L427.168 124.138L426.484 127.765ZM427.442 122.774L486.529 112.484L487.178 109.082L428.092 119.372L427.442 122.774ZM433.366 92.5823L492.452 82.2923L492.794 80.4787L433.708 90.7688L433.366 92.5823ZM433.035 87.7434L493.398 77.231L493.66 75.7968L431.665 86.5933L433.035 87.7434ZM484.997 120.059L485.259 118.625L426.244 128.903L425.982 130.337L484.997 120.059ZM427.436 82.8718L428.389 83.7289L494.356 72.2406L494.609 71.1734L427.436 82.8718ZM468.181 110.783L487.474 107.423L488.103 104.317L468.809 107.677L468.181 110.783ZM428.458 117.701L447.61 114.365L448.239 111.26L429.016 114.607L428.458 117.701ZM469.21 105.78L488.432 102.433L489.027 99.5519L469.733 102.912L469.21 105.78ZM429.416 112.71L448.639 109.363L449.163 106.494L429.94 109.842L429.416 112.71ZM470.155 100.719L489.449 97.359L489.951 94.7867L470.657 98.1467L470.155 100.719ZM430.362 107.649L449.585 104.301L450.087 101.729L430.864 105.077L430.362 107.649ZM471.184 95.7163L490.407 92.3686L490.875 90.0215L471.652 93.3692L471.184 95.7163ZM431.391 102.646L450.614 99.2987L451.082 96.9515L431.859 100.299L431.391 102.646ZM472.201 90.6427L491.423 87.295L491.87 85.2439L472.577 88.604L472.201 90.6427ZM432.408 97.5727L451.63 94.225L452.006 92.1863L432.783 95.534L432.408 97.5727ZM496.722 115.533L555.738 105.255L556.492 101.615L497.477 111.893L496.722 115.533ZM497.751 110.53L556.767 100.252L557.417 96.8503L498.401 107.128L497.751 110.53ZM500.742 95.3923L559.687 85.1269L560.189 82.5546L501.244 92.82L500.742 95.3923ZM539.608 92.7895L539.448 93.5482L558.67 90.2006L559.265 87.3198L500.32 97.5852L499.886 99.7072L539.608 92.7895ZM501.7 90.4019L560.645 80.1365L561.113 77.7894L502.168 88.0548L501.7 90.4019ZM503.675 80.3379L562.619 70.0725L562.961 68.259L504.017 78.5243L503.675 80.3379ZM503.343 75.499L563.636 64.9989L563.898 63.5647L501.974 74.3489L503.343 75.499ZM555.235 107.827L555.497 106.393L496.552 116.658L496.291 118.093L555.235 107.827ZM564.847 58.9414L497.745 70.6273L498.698 71.4845L564.594 60.0085L564.847 58.9414ZM538.419 98.5509L557.712 95.1909L558.341 92.085L539.047 95.4451L538.419 98.5509ZM502.717 85.3283L521.939 81.9806L522.315 79.9419L503.163 83.2772L502.717 85.3283ZM577.816 67.4261L629.88 58.359L630.222 56.5454L576.171 65.9584L577.816 67.4261ZM573.299 63.316L630.897 53.2853L631.158 51.8511L572.072 62.1412L573.299 63.316ZM584.907 100.175L604.13 96.8273L604.814 93.2002L585.591 96.5478L584.907 100.175ZM632.107 47.2278L567.984 58.3949L568.938 59.2521L631.855 48.295L632.107 47.2278ZM585.865 95.1846L605.088 91.8369L605.738 88.435L586.515 91.7826L585.865 95.1846ZM586.882 90.1109L606.105 86.7633L606.662 83.6697L587.44 87.0174L586.882 90.1109ZM587.84 85.1206L607.063 81.7729L607.586 78.9045L588.364 82.2522L587.84 85.1206ZM588.786 80.0593L608.008 76.7116L608.511 74.1393L589.288 77.487L588.786 80.0593ZM589.815 75.0566L609.037 71.7089L609.506 69.3618L590.283 72.7094L589.815 75.0566ZM590.831 69.9829L610.054 66.6352L610.43 64.5965L591.207 67.9442L590.831 69.9829ZM603.628 99.3996L603.89 97.9654L584.667 101.313L584.405 102.747L603.628 99.3996Z" fill="#37CBF2"/>
<path d="M430 159L696 110" stroke="#EBE267" stroke-width="11" stroke-linecap="round"/>
<path d="M6 134L272 85" stroke="#F54DBD" stroke-width="11" stroke-linecap="round"/>
<path d="M404 164L370.75 170.125" stroke="#F54DBD" stroke-width="11" stroke-linecap="round"/>
<path d="M361.25 68L328 74.125" stroke="#F54DBD" stroke-width="11" stroke-linecap="round"/>
<path d="M679.25 13L646 19.125" stroke="#F54DBD" stroke-width="11" stroke-linecap="round"/>
<path d="M390 194.5L523 170" stroke="#F54DBD" stroke-width="11" stroke-linecap="round"/>
<path d="M122 218.5L255 194" stroke="#EBE267" stroke-width="11" stroke-linecap="round"/>
<path d="M195 70.5L328 46" stroke="#EBE267" stroke-width="11" stroke-linecap="round"/>
<path d="M348.312 175L340 176.531" stroke="#B952EE" stroke-width="11" stroke-linecap="round"/>
<path d="M394.312 61L386 62.5312" stroke="#F54DBD" stroke-width="11" stroke-linecap="round"/>
<path d="M710.312 6L702 7.53125" stroke="#B952EE" stroke-width="11" stroke-linecap="round"/>
</svg>
